PathFileType	4	(X/Y/Z)	C:\Users\WrightLab\Desktop\Jo\P1_boxCal16.trc
DataRate	CameraRate	NumFrames	NumMarkers	Units	OrigDataRate	OrigDataStartFrame	OrigNumFrames
100.00	100.00	      13	19	mm	100.00	144	      1146
Frame#	Time	Headset_Front			Headset_Back			Headset_Left			Headset_Right			Left_Shoulder			Right_Shoulder			Sternum			C7			Left Elbow			Right Elbow			Left Wrist			Right Wrist			Left ASIS			Right ASIS			S2			Left Knee			Right Knee			Left Ankle			Right Ankle			
		X1	Y1	Z1	X2	Y2	Z2	X3	Y3	Z3	X4	Y4	Z4	X5	Y5	Z5	X6	Y6	Z6	X7	Y7	Z7	X8	Y8	Z8	X9	Y9	Z9	X10	Y10	Z10	X11	Y11	Z11	X12	Y12	Z12	X13	Y13	Z13	X14	Y14	Z14	X15	Y15	Z15	X16	Y16	Z16	X17	Y17	Z17	X18	Y18	Z18	X19	Y19	Z19	

144	1.430	-747.67157	1408.21887	-364.40784				-847.29584	1219.50671	-481.63977	-533.13141	1402.89087	-440.83041	-381.29575	906.24896	-504.32877	-481.26224	414.50012	-532.59363							-460.70007	1229.24939	-488.30554				-644.55115	1237.75439	-600.06665	-642.11328	1473.89526	-554.58148	-670.55328	1128.21448	-352.67929				-557.08545	845.31659	-329.74591	-637.28009	848.57300	-656.35632	-342.40207	735.69702	-373.32352	-757.46704	840.95941	-343.34821				
145	1.440	-750.69458	1409.47302	-354.16101				-851.43414	1219.81580	-470.70691	-536.76233	1403.20972	-432.55771	-384.99533	907.75360	-499.62195	-484.78119	413.43661	-519.22736							-464.76917	1230.04443	-479.79520				-649.63403	1238.18103	-590.96423	-646.57794	1474.70227	-545.76294	-671.32892	1127.86743	-341.97800				-557.94220	846.78503	-317.29288	-642.62268	848.10803	-644.80115	-343.51883	735.22827	-370.94424	-760.81494	842.89160	-332.52655				
146	1.450	-753.49890	1410.33569	-343.36124				-854.79706	1220.44543	-459.36545	-540.19336	1404.14758	-424.67838	-388.68155	909.54102	-496.32288	-487.68024	411.72778	-504.59888							-468.96667	1231.92529	-472.24945				-654.59296	1239.21057	-581.52338	-651.13959	1475.42847	-535.91852	-674.58972	1130.86060	-332.35818				-561.13544	847.69037	-308.75873	-647.80695	849.19824	-635.28986	-345.33801	736.04938	-368.75974	-763.14728	844.15546	-320.40173				
147	1.460	-756.34875	1411.70239	-334.02719				-858.26184	1221.30627	-447.95523	-543.36993	1405.56689	-417.06488	-392.95911	911.45880	-491.58667	-490.69321	410.36136	-490.31372							-472.31680	1233.54480	-465.42590				-659.14075	1240.26050	-572.00067	-655.50684	1476.63147	-527.47723	-678.24054	1132.65479	-323.85074				-564.04071	848.36652	-299.82272	-652.46698	849.91388	-624.79431	-346.81009	736.98260	-367.57663	-765.60718	844.71698	-309.04584				
148	1.470	-759.29901	1413.57043	-323.72476				-861.57391	1222.70117	-437.04370	-546.73560	1407.06750	-409.24179	-398.18967	913.85461	-485.71445	-493.29846	410.03952	-474.30872							-476.18472	1234.94080	-456.50775				-663.76410	1241.32507	-562.61542	-659.70154	1477.18225	-517.25714	-680.74146	1134.09497	-313.03873				-566.16730	849.92017	-290.73932	-656.77222	851.65607	-615.78485	-347.90414	737.79803	-365.51941	-768.26367	846.62177	-298.56094				
149	1.480	-760.77423	1414.61060	-313.72458				-864.46338	1223.97791	-425.50928	-550.16785	1409.08911	-400.13141	-402.24405	915.44806	-480.15811	-495.84323	408.51910	-456.16302							-479.66641	1237.42151	-448.38940				-667.74139	1242.95154	-552.74738	-663.78394	1478.81238	-508.42642	-683.27692	1136.48279	-303.67670				-569.36646	851.55420	-281.99234	-660.62170	852.76312	-606.25903	-349.65970	739.03357	-364.41663	-769.83954	848.88934	-289.25854				
150	1.490	-763.23645	1415.70520	-302.85089				-867.41602	1225.62598	-414.04477	-553.38086	1410.44263	-391.21680	-406.06393	917.64423	-476.18781	-497.66748	408.10941	-438.90369							-482.53397	1239.82324	-440.86014				-671.82690	1244.65686	-543.76477	-668.00806	1480.27844	-498.79608	-683.90979	1137.39124	-294.51614				-571.90356	853.97156	-273.17972	-663.97504	854.20886	-596.53552	-350.72202	740.40552	-362.65009	-772.71649	851.56665	-278.97049				
151	1.500	-766.71576	1417.52161	-293.82510				-869.84137	1227.60217	-403.33398	-556.37659	1412.01379	-382.56909	-409.62891	920.08496	-470.60818	-499.53067	408.37039	-419.78149							-485.22308	1241.98962	-433.24341				-675.82391	1246.43323	-534.42932	-672.16870	1481.91040	-489.60791	-686.03345	1138.94629	-285.05673				-575.43054	855.00867	-264.95105	-666.84131	855.42200	-587.95282	-351.63242	741.95679	-361.70804	-774.40973	852.39264	-269.29654				
152	1.510	-768.70117	1417.96387	-282.78583				-872.15747	1229.00159	-391.55179	-559.33301	1414.56506	-374.44492	-412.75006	923.18396	-465.23758	-499.71954	409.19574	-401.17371							-487.89890	1244.21472	-425.75015				-679.67865	1248.72644	-525.37653	-676.40356	1483.61499	-480.75143	-687.38165	1140.21899	-275.88605				-577.77789	856.45514	-257.00549	-670.46753	857.75714	-579.86304	-352.56503	743.61884	-360.09653	-776.55347	854.60889	-260.25961				
153	1.520	-768.89270	1418.62598	-272.34476				-874.42084	1230.91724	-380.14334	-561.23053	1416.01025	-365.14844	-415.11359	925.82965	-461.98547	-499.82767	410.25256	-383.74695							-490.21732	1245.97827	-419.07767				-682.84790	1250.31042	-516.20563	-679.79053	1484.61121	-470.86743	-688.02045	1141.84253	-267.73538				-579.51941	857.98102	-250.62357	-673.10565	859.28400	-571.24335	-353.64056	744.97412	-358.49036	-779.28271	856.91772	-251.31427				
154	1.530	-771.00244	1420.06287	-262.54401				-875.89691	1233.03308	-369.03363	-563.52753	1418.41406	-357.36978	-417.88849	927.77075	-456.10345	-499.57477	411.93884	-366.80981							-493.08432	1247.98267	-411.44287				-686.49652	1252.34607	-506.87616	-682.70770	1485.82300	-461.03128	-688.13373	1143.36328	-257.76822				-580.92267	859.47919	-243.73474	-675.66846	860.28784	-562.64948	-354.22134	747.02618	-356.85654	-781.20959	858.27979	-241.97227				
155	1.540	-772.66766	1420.35474	-252.41930				-877.64185	1234.24084	-356.99905	-565.65485	1420.98206	-350.22906	-420.07462	929.72626	-451.12970	-499.55887	413.64005	-349.61957							-494.74121	1250.01648	-403.98703				-689.75928	1254.08069	-498.26956	-686.21356	1487.60205	-451.79980	-688.68945	1143.63342	-248.83752				-581.61737	860.78217	-236.55708	-678.50354	862.08612	-554.89349	-354.81503	748.04749	-354.01004	-783.14404	860.55115	-233.32257				
156	1.550	-773.60712	1421.92700	-243.00966				-878.86523	1236.22681	-346.18359	-567.52374	1422.49170	-340.35123	-422.34729	931.87512	-446.28052	-499.86053	416.48920	-332.94095							-496.59927	1251.75195	-398.01743				-692.69904	1256.26001	-488.98364	-689.03082	1489.34070	-442.12628	-689.05371	1146.32935	-240.79605				-583.29028	862.36230	-230.75928	-681.84216	863.46838	-546.38269	-355.09302	749.84351	-352.62430	-783.80261	862.86292	-223.73586				
